<svg width="17" height="17" viewBox="0 0 17 17" fill="none" xmlns="http://www.w3.org/2000/svg">
<path d="M2.50489 11.5581C2.09852 11.5581 1.70879 11.3967 1.42144 11.1094C1.13409 10.822 0.972656 10.4323 0.972656 10.0259V3.13087C0.972656 2.72449 1.13409 2.33476 1.42144 2.04741C1.70879 1.76006 2.09852 1.59863 2.50489 1.59863H9.39994C9.80631 1.59863 10.196 1.76006 10.4834 2.04741C10.7707 2.33476 10.9322 2.72449 10.9322 3.13087M7.10159 6.19533H13.9966C14.8429 6.19533 15.5289 6.88133 15.5289 7.72756V14.6226C15.5289 15.4688 14.8429 16.1548 13.9966 16.1548H7.10159C6.25536 16.1548 5.56935 15.4688 5.56935 14.6226V7.72756C5.56935 6.88133 6.25536 6.19533 7.10159 6.19533Z" stroke="#8293BF" stroke-width="1.5" stroke-miterlimit="4.62842" stroke-linecap="round" stroke-linejoin="round"/>
</svg>
