<svg width="72" height="73" viewBox="0 0 72 73" fill="none" xmlns="http://www.w3.org/2000/svg">
<path d="M15.6885 36.4559C15.6885 34.1388 16.0195 31.8218 16.8471 29.6702L4.59961 20.2363C2.11702 25.2015 0.792969 30.6632 0.792969 36.4559C0.792969 42.2486 2.11702 47.7103 4.59961 52.51L16.8471 43.0762C16.0195 41.0901 15.6885 38.773 15.6885 36.4559Z" fill="#FBBC05"/>
<path d="M4.60156 20.4022L16.849 29.836C19.6626 21.0642 27.6069 14.9405 37.2063 14.9405C42.337 14.9405 46.9711 16.761 50.6123 19.7402L61.2047 9.14776C54.7499 3.52055 46.4746 0.0449219 37.2063 0.0449219C22.8072 0.0449219 10.3943 8.32023 4.60156 20.4022Z" fill="#EA4335"/>
<path d="M37.2063 29.8359V43.904H56.736C54.9154 52.8413 47.3021 57.972 37.2063 57.972C27.6069 57.972 19.6626 51.8483 16.849 43.2419L4.60156 52.6758C10.3943 64.5922 22.8072 72.8675 37.2063 72.8675C55.4119 72.8675 71.9626 59.627 71.9626 36.4562C71.9626 34.3046 71.6315 31.9875 71.135 29.8359H37.2063Z" fill="#34A853"/>
<path d="M37.207 29.8359V43.904H56.7368C55.7437 48.7036 53.0956 52.3448 49.289 54.8274L60.8744 63.7647C67.4947 57.4755 71.9633 48.3726 71.9633 36.4562C71.9633 34.3046 71.6323 31.9875 71.1358 29.8359H37.207Z" fill="#4285F4"/>
</svg>
