<svg width="35" height="35" viewBox="0 0 35 35" fill="none" xmlns="http://www.w3.org/2000/svg">
<path d="M17.9644 7.90801C16.7636 7.90801 15.5897 8.26411 14.5912 8.93127C13.5927 9.59843 12.8145 10.5467 12.355 11.6561C11.8954 12.7656 11.7752 13.9864 12.0095 15.1641C12.2437 16.3419 12.822 17.4238 13.6711 18.2729C14.5203 19.122 15.6021 19.7003 16.7799 19.9346C17.9577 20.1689 19.1785 20.0486 20.2879 19.5891C21.3974 19.1295 22.3456 18.3513 23.0128 17.3528C23.6799 16.3544 24.036 15.1805 24.036 13.9796C24.036 12.3693 23.3963 10.825 22.2577 9.68635C21.119 8.5477 19.5747 7.90801 17.9644 7.90801Z" fill="#8293BF" fill-opacity="0.4"/>
<path d="M17.9644 0.62207C14.602 0.62207 11.3151 1.61913 8.51942 3.48718C5.72369 5.35522 3.54469 8.01034 2.25796 11.1168C0.971233 14.2232 0.634566 17.6415 1.29054 20.9392C1.9465 24.237 3.56565 27.2662 5.94322 29.6438C8.32078 32.0214 11.35 33.6405 14.6478 34.2965C17.9456 34.9524 21.3638 34.6158 24.4702 33.3291C27.5767 32.0423 30.2318 29.8633 32.0998 27.0676C33.9679 24.2719 34.9649 20.985 34.9649 17.6226C34.9598 13.1154 33.167 8.7942 29.9799 5.60709C26.7928 2.41999 22.4717 0.627213 17.9644 0.62207ZM27.6693 28.4617C27.6451 26.8689 26.9961 25.3493 25.8623 24.2305C24.7284 23.1116 23.2004 22.4829 21.6074 22.4799H14.3214C12.7285 22.4829 11.2004 23.1116 10.0666 24.2305C8.93268 25.3493 8.28373 26.8689 8.25953 28.4617C6.05743 26.4954 4.50452 23.9066 3.80641 21.0381C3.1083 18.1696 3.29793 15.1567 4.35019 12.3984C5.40244 9.64009 7.2677 7.26645 9.69896 5.59177C12.1302 3.9171 15.0128 3.02039 17.965 3.02039C20.9172 3.02039 23.7998 3.9171 26.2311 5.59177C28.6623 7.26645 30.5276 9.64009 31.5799 12.3984C32.6321 15.1567 32.8217 18.1696 32.1236 21.0381C31.4255 23.9066 29.8714 26.4954 27.6693 28.4617Z" fill="#8293BF" fill-opacity="0.4"/>
</svg>
